<svg width="40" height="73" viewBox="0 0 40 73" fill="none" xmlns="http://www.w3.org/2000/svg">
<path d="M19.9871 0C20.8306 0 21.5107 0.233204 22.0271 0.699612C22.5608 1.16602 22.8276 1.76784 22.8276 2.50506V60.6552L22.5178 68.0124L20.7876 67.2677L29.4125 58.8949L35.2744 53.8397C35.5326 53.614 35.8339 53.441 36.1782 53.3206C36.5225 53.1852 36.8926 53.1175 37.2886 53.1175C38.0633 53.1175 38.7088 53.3432 39.2253 53.7945C39.7418 54.2459 40 54.8176 40 55.5097C40 56.1868 39.7073 56.7886 39.122 57.3152L22.1046 72.2101C21.8291 72.4659 21.502 72.6615 21.1233 72.7969C20.7618 72.9323 20.383 73 19.9871 73C19.6083 73 19.2382 72.9323 18.8767 72.7969C18.5152 72.6615 18.1881 72.4659 17.8954 72.2101L0.877986 57.3152C0.292662 56.7886 0 56.1868 0 55.5097C0 54.8176 0.258231 54.2459 0.774693 53.7945C1.29116 53.3432 1.93673 53.1175 2.71143 53.1175C3.10738 53.1175 3.47751 53.1852 3.82182 53.3206C4.16613 53.441 4.4674 53.614 4.72563 53.8397L10.5617 58.8949L19.1866 67.2677L17.4822 68.0124L17.1724 60.6552V2.50506C17.1724 1.76784 17.4306 1.16602 17.9471 0.699612C18.4807 0.233204 19.1607 0 19.9871 0Z" fill="white"/>
</svg>
